<?xml version="1.0" encoding="utf-8" standalone="no"?>
<!DOCTYPE svg PUBLIC "-//W3C//DTD SVG 1.1//EN"
  "http://www.w3.org/Graphics/SVG/1.1/DTD/svg11.dtd">
<svg height="739.44pt" version="1.1" viewBox="0 0 864 739.44" width="864pt" xmlns="http://www.w3.org/2000/svg" xmlns:xlink="http://www.w3.org/1999/xlink">
 <metadata>
  <rdf:RDF xmlns:cc="http://creativecommons.org/ns#" xmlns:dc="http://purl.org/dc/elements/1.1/" xmlns:rdf="http://www.w3.org/1999/02/22-rdf-syntax-ns#">
   <cc:Work>
    <dc:type rdf:resource="http://purl.org/dc/dcmitype/StillImage"/>
    <dc:date>2022-01-19T09:26:47.289655</dc:date>
    <dc:format>image/svg+xml</dc:format>
    <dc:creator>
     <cc:Agent>
      <dc:title>Matplotlib v3.4.2, https://matplotlib.org/</dc:title>
     </cc:Agent>
    </dc:creator>
   </cc:Work>
  </rdf:RDF>
 </metadata>
 <defs>
  <style type="text/css">*{stroke-linecap:butt;stroke-linejoin:round;}</style>
 </defs>
 <g id="figure_1">
  <g id="patch_1">
   <path d="M 0 739.44 
L 864 739.44 
L 864 0 
L 0 0 
z
" style="fill:#ffffff;"/>
  </g>
  <g id="patch_2">
   <path d="M 62.28 739.44 
L 801.72 739.44 
L 801.72 0 
L 62.28 0 
z
" style="fill:#ffffff;"/>
  </g>
  <g id="pane3d_1">
   <g id="patch_3">
    <path d="M 330.541559 426.075022 
L 123.383061 570.160119 
L 114.15985 221.868384 
L 327.630007 107.99922 
" style="fill:#f2f2f2;opacity:0.5;stroke:#f2f2f2;stroke-linejoin:miter;"/>
   </g>
  </g>
  <g id="pane3d_2">
   <g id="patch_4">
    <path d="M 742.969503 486.293551 
L 330.541559 426.075022 
L 327.630007 107.99922 
L 751.186946 155.513266 
" style="fill:#e6e6e6;opacity:0.5;stroke:#e6e6e6;stroke-linejoin:miter;"/>
   </g>
  </g>
  <g id="pane3d_3">
   <g id="patch_5">
    <path d="M 742.969503 486.293551 
L 330.541559 426.075022 
L 123.383061 570.160119 
L 571.157334 644.038321 
" style="fill:#ececec;opacity:0.5;stroke:#ececec;stroke-linejoin:miter;"/>
   </g>
  </g>
  <g id="axis3d_1">
   <g id="line2d_1">
    <path d="M 123.383061 570.160119 
L 571.157334 644.038321 
" style="fill:none;stroke:#000000;stroke-linecap:square;stroke-width:0.8;"/>
   </g>
   <g id="Line3DCollection_1">
    <path d="M 561.774414 642.490235 
L 734.366291 485.037397 
L 742.341649 154.521012 
" style="fill:none;stroke:#b0b0b0;stroke-width:0.8;"/>
    <path d="M 505.858521 633.264681 
L 683.062419 477.546528 
L 689.602938 148.604855 
" style="fill:none;stroke:#b0b0b0;stroke-width:0.8;"/>
    <path d="M 450.588661 624.145716 
L 632.293124 470.133713 
L 637.428586 142.752007 
" style="fill:none;stroke:#b0b0b0;stroke-width:0.8;"/>
    <path d="M 395.953701 615.131503 
L 582.050097 462.797738 
L 585.809584 136.961457 
" style="fill:none;stroke:#b0b0b0;stroke-width:0.8;"/>
    <path d="M 341.942765 606.220248 
L 532.325196 455.537414 
L 534.737109 131.232215 
" style="fill:none;stroke:#b0b0b0;stroke-width:0.8;"/>
    <path d="M 288.545221 597.410196 
L 483.110447 448.351578 
L 484.20253 125.563315 
" style="fill:none;stroke:#b0b0b0;stroke-width:0.8;"/>
    <path d="M 235.75068 588.699634 
L 434.398041 441.239088 
L 434.197392 119.953806 
" style="fill:none;stroke:#b0b0b0;stroke-width:0.8;"/>
    <path d="M 183.548984 580.086885 
L 386.180323 434.198828 
L 384.713419 114.40276 
" style="fill:none;stroke:#b0b0b0;stroke-width:0.8;"/>
    <path d="M 131.930204 571.570311 
L 338.449798 427.229703 
L 335.742505 108.909269 
" style="fill:none;stroke:#b0b0b0;stroke-width:0.8;"/>
   </g>
   <g id="xtick_1">
    <g id="line2d_2">
     <path d="M 563.305795 641.09318 
L 558.703546 645.291739 
" style="fill:none;stroke:#000000;stroke-linecap:square;stroke-width:0.8;"/>
    </g>
    <g id="text_1">
     <!-- −1.00 -->
     <g transform="translate(540.611272 665.87214)scale(0.1 -0.1)">
      <defs>
       <path d="M 678 2272 
L 4684 2272 
L 4684 1741 
L 678 1741 
L 678 2272 
z
" id="DejaVuSans-2212" transform="scale(0.015625)"/>
       <path d="M 794 531 
L 1825 531 
L 1825 4091 
L 703 3866 
L 703 4441 
L 1819 4666 
L 2450 4666 
L 2450 531 
L 3481 531 
L 3481 0 
L 794 0 
L 794 531 
z
" id="DejaVuSans-31" transform="scale(0.015625)"/>
       <path d="M 684 794 
L 1344 794 
L 1344 0 
L 684 0 
L 684 794 
z
" id="DejaVuSans-2e" transform="scale(0.015625)"/>
       <path d="M 2034 4250 
Q 1547 4250 1301 3770 
Q 1056 3291 1056 2328 
Q 1056 1369 1301 889 
Q 1547 409 2034 409 
Q 2525 409 2770 889 
Q 3016 1369 3016 2328 
Q 3016 3291 2770 3770 
Q 2525 4250 2034 4250 
z
M 2034 4750 
Q 2819 4750 3233 4129 
Q 3647 3509 3647 2328 
Q 3647 1150 3233 529 
Q 2819 -91 2034 -91 
Q 1250 -91 836 529 
Q 422 1150 422 2328 
Q 422 3509 836 4129 
Q 1250 4750 2034 4750 
z
" id="DejaVuSans-30" transform="scale(0.015625)"/>
      </defs>
      <use xlink:href="#DejaVuSans-2212"/>
      <use x="83.789062" xlink:href="#DejaVuSans-31"/>
      <use x="147.412109" xlink:href="#DejaVuSans-2e"/>
      <use x="179.199219" xlink:href="#DejaVuSans-30"/>
      <use x="242.822266" xlink:href="#DejaVuSans-30"/>
     </g>
    </g>
   </g>
   <g id="xtick_2">
    <g id="line2d_3">
     <path d="M 507.429926 631.883807 
L 502.707442 636.033696 
" style="fill:none;stroke:#000000;stroke-linecap:square;stroke-width:0.8;"/>
    </g>
    <g id="text_2">
     <!-- −0.75 -->
     <g transform="translate(484.595272 656.532529)scale(0.1 -0.1)">
      <defs>
       <path d="M 525 4666 
L 3525 4666 
L 3525 4397 
L 1831 0 
L 1172 0 
L 2766 4134 
L 525 4134 
L 525 4666 
z
" id="DejaVuSans-37" transform="scale(0.015625)"/>
       <path d="M 691 4666 
L 3169 4666 
L 3169 4134 
L 1269 4134 
L 1269 2991 
Q 1406 3038 1543 3061 
Q 1681 3084 1819 3084 
Q 2600 3084 3056 2656 
Q 3513 2228 3513 1497 
Q 3513 744 3044 326 
Q 2575 -91 1722 -91 
Q 1428 -91 1123 -41 
Q 819 9 494 109 
L 494 744 
Q 775 591 1075 516 
Q 1375 441 1709 441 
Q 2250 441 2565 725 
Q 2881 1009 2881 1497 
Q 2881 1984 2565 2268 
Q 2250 2553 1709 2553 
Q 1456 2553 1204 2497 
Q 953 2441 691 2322 
L 691 4666 
z
" id="DejaVuSans-35" transform="scale(0.015625)"/>
      </defs>
      <use xlink:href="#DejaVuSans-2212"/>
      <use x="83.789062" xlink:href="#DejaVuSans-30"/>
      <use x="147.412109" xlink:href="#DejaVuSans-2e"/>
      <use x="179.199219" xlink:href="#DejaVuSans-37"/>
      <use x="242.822266" xlink:href="#DejaVuSans-35"/>
     </g>
    </g>
   </g>
   <g id="xtick_3">
    <g id="line2d_4">
     <path d="M 452.199066 622.780743 
L 447.359426 626.882804 
" style="fill:none;stroke:#000000;stroke-linecap:square;stroke-width:0.8;"/>
    </g>
    <g id="text_3">
     <!-- −0.50 -->
     <g transform="translate(429.228004 647.301082)scale(0.1 -0.1)">
      <use xlink:href="#DejaVuSans-2212"/>
      <use x="83.789062" xlink:href="#DejaVuSans-30"/>
      <use x="147.412109" xlink:href="#DejaVuSans-2e"/>
      <use x="179.199219" xlink:href="#DejaVuSans-35"/>
      <use x="242.822266" xlink:href="#DejaVuSans-30"/>
     </g>
    </g>
   </g>
   <g id="xtick_4">
    <g id="line2d_5">
     <path d="M 397.60211 613.782158 
L 392.64831 617.837212 
" style="fill:none;stroke:#000000;stroke-linecap:square;stroke-width:0.8;"/>
    </g>
    <g id="text_4">
     <!-- −0.25 -->
     <g transform="translate(374.498264 638.175931)scale(0.1 -0.1)">
      <defs>
       <path d="M 1228 531 
L 3431 531 
L 3431 0 
L 469 0 
L 469 531 
Q 828 903 1448 1529 
Q 2069 2156 2228 2338 
Q 2531 2678 2651 2914 
Q 2772 3150 2772 3378 
Q 2772 3750 2511 3984 
Q 2250 4219 1831 4219 
Q 1534 4219 1204 4116 
Q 875 4013 500 3803 
L 500 4441 
Q 881 4594 1212 4672 
Q 1544 4750 1819 4750 
Q 2544 4750 2975 4387 
Q 3406 4025 3406 3419 
Q 3406 3131 3298 2873 
Q 3191 2616 2906 2266 
Q 2828 2175 2409 1742 
Q 1991 1309 1228 531 
z
" id="DejaVuSans-32" transform="scale(0.015625)"/>
      </defs>
      <use xlink:href="#DejaVuSans-2212"/>
      <use x="83.789062" xlink:href="#DejaVuSans-30"/>
      <use x="147.412109" xlink:href="#DejaVuSans-2e"/>
      <use x="179.199219" xlink:href="#DejaVuSans-32"/>
      <use x="242.822266" xlink:href="#DejaVuSans-35"/>
     </g>
    </g>
   </g>
   <g id="xtick_5">
    <g id="line2d_6">
     <path d="M 343.628206 604.886264 
L 338.563165 608.895115 
" style="fill:none;stroke:#000000;stroke-linecap:square;stroke-width:0.8;"/>
    </g>
    <g id="text_5">
     <!-- 0.00 -->
     <g transform="translate(324.584947 629.15525)scale(0.1 -0.1)">
      <use xlink:href="#DejaVuSans-30"/>
      <use x="63.623047" xlink:href="#DejaVuSans-2e"/>
      <use x="95.410156" xlink:href="#DejaVuSans-30"/>
      <use x="159.033203" xlink:href="#DejaVuSans-30"/>
     </g>
    </g>
   </g>
   <g id="xtick_6">
    <g id="line2d_7">
     <path d="M 290.266751 596.091313 
L 285.093308 600.054746 
" style="fill:none;stroke:#000000;stroke-linecap:square;stroke-width:0.8;"/>
    </g>
    <g id="text_6">
     <!-- 0.25 -->
     <g transform="translate(271.097667 620.237256)scale(0.1 -0.1)">
      <use xlink:href="#DejaVuSans-30"/>
      <use x="63.623047" xlink:href="#DejaVuSans-2e"/>
      <use x="95.410156" xlink:href="#DejaVuSans-32"/>
      <use x="159.033203" xlink:href="#DejaVuSans-35"/>
     </g>
    </g>
   </g>
   <g id="xtick_7">
    <g id="line2d_8">
     <path d="M 237.507378 587.395596 
L 232.2283 591.314378 
" style="fill:none;stroke:#000000;stroke-linecap:square;stroke-width:0.8;"/>
    </g>
    <g id="text_7">
     <!-- 0.50 -->
     <g transform="translate(218.21581 611.420204)scale(0.1 -0.1)">
      <use xlink:href="#DejaVuSans-30"/>
      <use x="63.623047" xlink:href="#DejaVuSans-2e"/>
      <use x="95.410156" xlink:href="#DejaVuSans-35"/>
      <use x="159.033203" xlink:href="#DejaVuSans-30"/>
     </g>
    </g>
   </g>
   <g id="xtick_8">
    <g id="line2d_9">
     <path d="M 185.339955 578.797443 
L 179.957934 582.672325 
" style="fill:none;stroke:#000000;stroke-linecap:square;stroke-width:0.8;"/>
    </g>
    <g id="text_8">
     <!-- 0.75 -->
     <g transform="translate(165.929156 602.702391)scale(0.1 -0.1)">
      <use xlink:href="#DejaVuSans-30"/>
      <use x="63.623047" xlink:href="#DejaVuSans-2e"/>
      <use x="95.410156" xlink:href="#DejaVuSans-37"/>
      <use x="159.033203" xlink:href="#DejaVuSans-35"/>
     </g>
    </g>
   </g>
   <g id="xtick_9">
    <g id="line2d_10">
     <path d="M 133.754575 570.295222 
L 128.272235 574.126937 
" style="fill:none;stroke:#000000;stroke-linecap:square;stroke-width:0.8;"/>
    </g>
    <g id="text_9">
     <!-- 1.00 -->
     <g transform="translate(114.227711 594.082151)scale(0.1 -0.1)">
      <use xlink:href="#DejaVuSans-31"/>
      <use x="63.623047" xlink:href="#DejaVuSans-2e"/>
      <use x="95.410156" xlink:href="#DejaVuSans-30"/>
      <use x="159.033203" xlink:href="#DejaVuSans-30"/>
     </g>
    </g>
   </g>
  </g>
  <g id="axis3d_2">
   <g id="line2d_11">
    <path d="M 742.969503 486.293551 
L 571.157334 644.038321 
" style="fill:none;stroke:#000000;stroke-linecap:square;stroke-width:0.8;"/>
   </g>
   <g id="Line3DCollection_2">
    <path d="M 323.769603 110.058436 
L 326.785171 428.687706 
L 739.868162 489.140965 
" style="fill:none;stroke:#b0b0b0;stroke-width:0.8;"/>
    <path d="M 300.286428 122.584822 
L 303.942788 444.575284 
L 720.997901 506.466193 
" style="fill:none;stroke:#b0b0b0;stroke-width:0.8;"/>
    <path d="M 276.239086 135.412145 
L 280.56596 460.834586 
L 701.666229 524.215053 
" style="fill:none;stroke:#b0b0b0;stroke-width:0.8;"/>
    <path d="M 251.607 148.551382 
L 256.635706 477.478812 
L 681.856013 542.403275 
" style="fill:none;stroke:#b0b0b0;stroke-width:0.8;"/>
    <path d="M 226.36858 162.014049 
L 232.132139 494.521796 
L 661.549262 561.047379 
" style="fill:none;stroke:#b0b0b0;stroke-width:0.8;"/>
    <path d="M 200.501159 175.812239 
L 207.034406 511.97804 
L 640.727069 580.164721 
" style="fill:none;stroke:#b0b0b0;stroke-width:0.8;"/>
    <path d="M 173.980924 189.958652 
L 181.320631 529.86276 
L 619.369558 599.773551 
" style="fill:none;stroke:#b0b0b0;stroke-width:0.8;"/>
    <path d="M 146.782849 204.466638 
L 154.96785 548.191929 
L 597.455817 619.893069 
" style="fill:none;stroke:#b0b0b0;stroke-width:0.8;"/>
    <path d="M 118.880608 219.35024 
L 127.951944 566.982321 
L 574.963828 640.54349 
" style="fill:none;stroke:#b0b0b0;stroke-width:0.8;"/>
   </g>
   <g id="xtick_10">
    <g id="line2d_12">
     <path d="M 736.419309 488.636238 
L 746.773155 490.151487 
" style="fill:none;stroke:#000000;stroke-linecap:square;stroke-width:0.8;"/>
    </g>
    <g id="text_10">
     <!-- −1.00 -->
     <g transform="translate(737.19276 508.261561)scale(0.1 -0.1)">
      <use xlink:href="#DejaVuSans-2212"/>
      <use x="83.789062" xlink:href="#DejaVuSans-31"/>
      <use x="147.412109" xlink:href="#DejaVuSans-2e"/>
      <use x="179.199219" xlink:href="#DejaVuSans-30"/>
      <use x="242.822266" xlink:href="#DejaVuSans-30"/>
     </g>
    </g>
   </g>
   <g id="xtick_11">
    <g id="line2d_13">
     <path d="M 717.514128 505.949201 
L 727.972899 507.501281 
" style="fill:none;stroke:#000000;stroke-linecap:square;stroke-width:0.8;"/>
    </g>
    <g id="text_11">
     <!-- −0.75 -->
     <g transform="translate(718.465425 525.735128)scale(0.1 -0.1)">
      <use xlink:href="#DejaVuSans-2212"/>
      <use x="83.789062" xlink:href="#DejaVuSans-30"/>
      <use x="147.412109" xlink:href="#DejaVuSans-2e"/>
      <use x="179.199219" xlink:href="#DejaVuSans-37"/>
      <use x="242.822266" xlink:href="#DejaVuSans-35"/>
     </g>
    </g>
   </g>
   <g id="xtick_12">
    <g id="line2d_14">
     <path d="M 698.146848 523.685345 
L 708.712612 525.275615 
" style="fill:none;stroke:#000000;stroke-linecap:square;stroke-width:0.8;"/>
    </g>
    <g id="text_12">
     <!-- −0.50 -->
     <g transform="translate(699.279931 543.636181)scale(0.1 -0.1)">
      <use xlink:href="#DejaVuSans-2212"/>
      <use x="83.789062" xlink:href="#DejaVuSans-30"/>
      <use x="147.412109" xlink:href="#DejaVuSans-2e"/>
      <use x="179.199219" xlink:href="#DejaVuSans-35"/>
      <use x="242.822266" xlink:href="#DejaVuSans-30"/>
     </g>
    </g>
   </g>
   <g id="xtick_13">
    <g id="line2d_15">
     <path d="M 678.300317 541.860376 
L 688.9752 543.490263 
" style="fill:none;stroke:#000000;stroke-linecap:square;stroke-width:0.8;"/>
    </g>
    <g id="text_13">
     <!-- −0.25 -->
     <g transform="translate(679.619255 561.980603)scale(0.1 -0.1)">
      <use xlink:href="#DejaVuSans-2212"/>
      <use x="83.789062" xlink:href="#DejaVuSans-30"/>
      <use x="147.412109" xlink:href="#DejaVuSans-2e"/>
      <use x="179.199219" xlink:href="#DejaVuSans-32"/>
      <use x="242.822266" xlink:href="#DejaVuSans-35"/>
     </g>
    </g>
   </g>
   <g id="xtick_14">
    <g id="line2d_16">
     <path d="M 657.956524 560.490789 
L 668.742711 562.161793 
" style="fill:none;stroke:#000000;stroke-linecap:square;stroke-width:0.8;"/>
    </g>
    <g id="text_14">
     <!-- 0.00 -->
     <g transform="translate(663.655367 580.785072)scale(0.1 -0.1)">
      <use xlink:href="#DejaVuSans-30"/>
      <use x="63.623047" xlink:href="#DejaVuSans-2e"/>
      <use x="95.410156" xlink:href="#DejaVuSans-30"/>
      <use x="159.033203" xlink:href="#DejaVuSans-30"/>
     </g>
    </g>
   </g>
   <g id="xtick_15">
    <g id="line2d_17">
     <path d="M 637.096543 579.593917 
L 647.996281 581.307612 
" style="fill:none;stroke:#000000;stroke-linecap:square;stroke-width:0.8;"/>
    </g>
    <g id="text_15">
     <!-- 0.25 -->
     <g transform="translate(642.989796 600.067113)scale(0.1 -0.1)">
      <use xlink:href="#DejaVuSans-30"/>
      <use x="63.623047" xlink:href="#DejaVuSans-2e"/>
      <use x="95.410156" xlink:href="#DejaVuSans-32"/>
      <use x="159.033203" xlink:href="#DejaVuSans-35"/>
     </g>
    </g>
   </g>
   <g id="xtick_16">
    <g id="line2d_18">
     <path d="M 615.700476 599.18798 
L 626.716076 600.946024 
" style="fill:none;stroke:#000000;stroke-linecap:square;stroke-width:0.8;"/>
    </g>
    <g id="text_16">
     <!-- 0.50 -->
     <g transform="translate(621.792637 619.845153)scale(0.1 -0.1)">
      <use xlink:href="#DejaVuSans-30"/>
      <use x="63.623047" xlink:href="#DejaVuSans-2e"/>
      <use x="95.410156" xlink:href="#DejaVuSans-35"/>
      <use x="159.033203" xlink:href="#DejaVuSans-30"/>
     </g>
    </g>
   </g>
   <g id="xtick_17">
    <g id="line2d_19">
     <path d="M 593.747387 619.292152 
L 604.881228 621.096289 
" style="fill:none;stroke:#000000;stroke-linecap:square;stroke-width:0.8;"/>
    </g>
    <g id="text_17">
     <!-- 0.75 -->
     <g transform="translate(600.04311 640.138581)scale(0.1 -0.1)">
      <use xlink:href="#DejaVuSans-30"/>
      <use x="63.623047" xlink:href="#DejaVuSans-2e"/>
      <use x="95.410156" xlink:href="#DejaVuSans-37"/>
      <use x="159.033203" xlink:href="#DejaVuSans-35"/>
     </g>
    </g>
   </g>
   <g id="xtick_18">
    <g id="line2d_20">
     <path d="M 571.215239 639.926615 
L 582.469765 641.778682 
" style="fill:none;stroke:#000000;stroke-linecap:square;stroke-width:0.8;"/>
    </g>
    <g id="text_18">
     <!-- 1.00 -->
     <g transform="translate(577.71934 660.967807)scale(0.1 -0.1)">
      <use xlink:href="#DejaVuSans-31"/>
      <use x="63.623047" xlink:href="#DejaVuSans-2e"/>
      <use x="95.410156" xlink:href="#DejaVuSans-30"/>
      <use x="159.033203" xlink:href="#DejaVuSans-30"/>
     </g>
    </g>
   </g>
  </g>
  <g id="axis3d_3">
   <g id="line2d_21">
    <path d="M 742.969503 486.293551 
L 751.186946 155.513266 
" style="fill:none;stroke:#000000;stroke-linecap:square;stroke-width:0.8;"/>
   </g>
   <g id="Line3DCollection_3">
    <path d="M 743.129569 479.850343 
L 330.484781 419.872306 
L 123.203685 563.386449 
" style="fill:none;stroke:#b0b0b0;stroke-width:0.8;"/>
    <path d="M 744.093552 441.046715 
L 330.142898 382.522883 
L 122.123177 522.583718 
" style="fill:none;stroke:#b0b0b0;stroke-width:0.8;"/>
    <path d="M 745.063727 401.993858 
L 329.798912 344.943729 
L 121.035319 481.503451 
" style="fill:none;stroke:#b0b0b0;stroke-width:0.8;"/>
    <path d="M 746.040153 362.689363 
L 329.452804 307.132718 
L 119.940036 440.142807 
" style="fill:none;stroke:#b0b0b0;stroke-width:0.8;"/>
    <path d="M 747.022891 323.130788 
L 329.104553 269.087696 
L 118.837252 398.498905 
" style="fill:none;stroke:#b0b0b0;stroke-width:0.8;"/>
    <path d="M 748.012002 283.315663 
L 328.754141 230.806485 
L 117.72689 356.568826 
" style="fill:none;stroke:#b0b0b0;stroke-width:0.8;"/>
    <path d="M 749.007549 243.241485 
L 328.401546 192.286879 
L 116.608871 314.349611 
" style="fill:none;stroke:#b0b0b0;stroke-width:0.8;"/>
    <path d="M 750.009594 202.905715 
L 328.046749 153.526643 
L 115.483116 271.838256 
" style="fill:none;stroke:#b0b0b0;stroke-width:0.8;"/>
    <path d="M 751.018202 162.305785 
L 327.689728 114.523516 
L 114.349544 229.031721 
" style="fill:none;stroke:#b0b0b0;stroke-width:0.8;"/>
   </g>
   <g id="xtick_19">
    <g id="line2d_22">
     <path d="M 739.684585 479.349613 
L 750.026808 480.852858 
" style="fill:none;stroke:#000000;stroke-linecap:square;stroke-width:0.8;"/>
    </g>
    <g id="text_19">
     <!-- −1.00 -->
     <g transform="translate(745.264321 485.096364)scale(0.1 -0.1)">
      <use xlink:href="#DejaVuSans-2212"/>
      <use x="83.789062" xlink:href="#DejaVuSans-31"/>
      <use x="147.412109" xlink:href="#DejaVuSans-2e"/>
      <use x="179.199219" xlink:href="#DejaVuSans-30"/>
      <use x="242.822266" xlink:href="#DejaVuSans-30"/>
     </g>
    </g>
   </g>
   <g id="xtick_20">
    <g id="line2d_23">
     <path d="M 740.637204 440.558061 
L 751.013566 442.025058 
" style="fill:none;stroke:#000000;stroke-linecap:square;stroke-width:0.8;"/>
    </g>
    <g id="text_20">
     <!-- −0.75 -->
     <g transform="translate(746.282499 446.349475)scale(0.1 -0.1)">
      <use xlink:href="#DejaVuSans-2212"/>
      <use x="83.789062" xlink:href="#DejaVuSans-30"/>
      <use x="147.412109" xlink:href="#DejaVuSans-2e"/>
      <use x="179.199219" xlink:href="#DejaVuSans-37"/>
      <use x="242.822266" xlink:href="#DejaVuSans-35"/>
     </g>
    </g>
   </g>
   <g id="xtick_21">
    <g id="line2d_24">
     <path d="M 741.59594 401.517445 
L 752.006666 402.947697 
" style="fill:none;stroke:#000000;stroke-linecap:square;stroke-width:0.8;"/>
    </g>
    <g id="text_21">
     <!-- −0.50 -->
     <g transform="translate(747.307206 407.354134)scale(0.1 -0.1)">
      <use xlink:href="#DejaVuSans-2212"/>
      <use x="83.789062" xlink:href="#DejaVuSans-30"/>
      <use x="147.412109" xlink:href="#DejaVuSans-2e"/>
      <use x="179.199219" xlink:href="#DejaVuSans-35"/>
      <use x="242.822266" xlink:href="#DejaVuSans-30"/>
     </g>
    </g>
   </g>
   <g id="xtick_22">
    <g id="line2d_25">
     <path d="M 742.560851 362.225358 
L 753.00617 363.61836 
" style="fill:none;stroke:#000000;stroke-linecap:square;stroke-width:0.8;"/>
    </g>
    <g id="text_22">
     <!-- −0.25 -->
     <g transform="translate(748.338504 368.107945)scale(0.1 -0.1)">
      <use xlink:href="#DejaVuSans-2212"/>
      <use x="83.789062" xlink:href="#DejaVuSans-30"/>
      <use x="147.412109" xlink:href="#DejaVuSans-2e"/>
      <use x="179.199219" xlink:href="#DejaVuSans-32"/>
      <use x="242.822266" xlink:href="#DejaVuSans-35"/>
     </g>
    </g>
   </g>
   <g id="xtick_23">
    <g id="line2d_26">
     <path d="M 743.531997 322.679363 
L 754.012139 324.034603 
" style="fill:none;stroke:#000000;stroke-linecap:square;stroke-width:0.8;"/>
    </g>
    <g id="text_23">
     <!-- 0.00 -->
     <g transform="translate(753.566301 328.608477)scale(0.1 -0.1)">
      <use xlink:href="#DejaVuSans-30"/>
      <use x="63.623047" xlink:href="#DejaVuSans-2e"/>
      <use x="95.410156" xlink:href="#DejaVuSans-30"/>
      <use x="159.033203" xlink:href="#DejaVuSans-30"/>
     </g>
    </g>
   </g>
   <g id="xtick_24">
    <g id="line2d_27">
     <path d="M 744.50944 282.876992 
L 755.024638 284.193948 
" style="fill:none;stroke:#000000;stroke-linecap:square;stroke-width:0.8;"/>
    </g>
    <g id="text_24">
     <!-- 0.25 -->
     <g transform="translate(754.610975 288.853273)scale(0.1 -0.1)">
      <use xlink:href="#DejaVuSans-30"/>
      <use x="63.623047" xlink:href="#DejaVuSans-2e"/>
      <use x="95.410156" xlink:href="#DejaVuSans-32"/>
      <use x="159.033203" xlink:href="#DejaVuSans-35"/>
     </g>
    </g>
   </g>
   <g id="xtick_25">
    <g id="line2d_28">
     <path d="M 745.493239 242.815741 
L 756.043728 244.093888 
" style="fill:none;stroke:#000000;stroke-linecap:square;stroke-width:0.8;"/>
    </g>
    <g id="text_25">
     <!-- 0.50 -->
     <g transform="translate(755.662435 248.839839)scale(0.1 -0.1)">
      <use xlink:href="#DejaVuSans-30"/>
      <use x="63.623047" xlink:href="#DejaVuSans-2e"/>
      <use x="95.410156" xlink:href="#DejaVuSans-35"/>
      <use x="159.033203" xlink:href="#DejaVuSans-30"/>
     </g>
    </g>
   </g>
   <g id="xtick_26">
    <g id="line2d_29">
     <path d="M 746.483459 202.493079 
L 757.069476 203.731879 
" style="fill:none;stroke:#000000;stroke-linecap:square;stroke-width:0.8;"/>
    </g>
    <g id="text_26">
     <!-- 0.75 -->
     <g transform="translate(756.720747 208.565652)scale(0.1 -0.1)">
      <use xlink:href="#DejaVuSans-30"/>
      <use x="63.623047" xlink:href="#DejaVuSans-2e"/>
      <use x="95.410156" xlink:href="#DejaVuSans-37"/>
      <use x="159.033203" xlink:href="#DejaVuSans-35"/>
     </g>
    </g>
   </g>
   <g id="xtick_27">
    <g id="line2d_30">
     <path d="M 747.48016 161.906437 
L 758.101946 163.105347 
" style="fill:none;stroke:#000000;stroke-linecap:square;stroke-width:0.8;"/>
    </g>
    <g id="text_27">
     <!-- 1.00 -->
     <g transform="translate(757.785977 168.028155)scale(0.1 -0.1)">
      <use xlink:href="#DejaVuSans-31"/>
      <use x="63.623047" xlink:href="#DejaVuSans-2e"/>
      <use x="95.410156" xlink:href="#DejaVuSans-30"/>
      <use x="159.033203" xlink:href="#DejaVuSans-30"/>
     </g>
    </g>
   </g>
  </g>
  <g id="axes_1">
   <g id="line2d_31">
    <path clip-path="url(#p1303ed3e5b)" d="M 331.692524 231.10291 
L 283.512905 259.865766 
" style="fill:none;stroke:#000000;stroke-dasharray:5.55,2.4;stroke-dashoffset:0;stroke-width:1.5;"/>
   </g>
   <g id="line2d_32">
    <path clip-path="url(#p1303ed3e5b)" d="M 283.512905 259.865766 
L 396.400553 391.711886 
" style="fill:none;stroke:#000000;stroke-dasharray:5.55,2.4;stroke-dashoffset:0;stroke-width:1.5;"/>
   </g>
   <g id="Line3DCollection_4">
    <path clip-path="url(#p1303ed3e5b)" d="M 237.614549 331.663157 
L 441.992432 359.727568 
" style="fill:none;stroke:#ff0000;stroke-width:3;"/>
    <path clip-path="url(#p1303ed3e5b)" d="M 237.614549 331.663157 
L 257.03404 338.460911 
" style="fill:none;stroke:#ff0000;stroke-width:3;"/>
    <path clip-path="url(#p1303ed3e5b)" d="M 237.614549 331.663157 
L 256.909124 330.178685 
" style="fill:none;stroke:#ff0000;stroke-width:3;"/>
   </g>
   <g id="text_28">
    <!-- X -->
    <g style="fill:#ff0000;" transform="translate(237.614549 331.663157)scale(0.16 -0.16)">
     <defs>
      <path d="M 403 4666 
L 1081 4666 
L 2241 2931 
L 3406 4666 
L 4084 4666 
L 2584 2425 
L 4184 0 
L 3506 0 
L 2194 1984 
L 872 0 
L 191 0 
L 1856 2491 
L 403 4666 
z
" id="DejaVuSans-58" transform="scale(0.015625)"/>
     </defs>
     <use xlink:href="#DejaVuSans-58"/>
    </g>
   </g>
   <g id="text_29">
    <!-- Y -->
    <g style="fill:#008000;" transform="translate(344.753544 427.944092)scale(0.16 -0.16)">
     <defs>
      <path d="M -13 4666 
L 666 4666 
L 1959 2747 
L 3244 4666 
L 3922 4666 
L 2272 2222 
L 2272 0 
L 1638 0 
L 1638 2222 
L -13 4666 
z
" id="DejaVuSans-59" transform="scale(0.015625)"/>
     </defs>
     <use xlink:href="#DejaVuSans-59"/>
    </g>
   </g>
   <g id="text_30">
    <!-- Z -->
    <g style="fill:#0000ff;" transform="translate(441.992432 194.693171)scale(0.16 -0.16)">
     <defs>
      <path d="M 359 4666 
L 4025 4666 
L 4025 4184 
L 1075 531 
L 4097 531 
L 4097 0 
L 288 0 
L 288 481 
L 3238 4134 
L 359 4134 
L 359 4666 
z
" id="DejaVuSans-5a" transform="scale(0.015625)"/>
     </defs>
     <use xlink:href="#DejaVuSans-5a"/>
    </g>
   </g>
   <g id="text_31">
    <!-- N -->
    <g style="fill:#4c17b3;" transform="translate(283.512905 259.865766)scale(0.16 -0.16)">
     <defs>
      <path d="M 628 4666 
L 1478 4666 
L 3547 763 
L 3547 4666 
L 4159 4666 
L 4159 0 
L 3309 0 
L 1241 3903 
L 1241 0 
L 628 0 
L 628 4666 
z
" id="DejaVuSans-4e" transform="scale(0.015625)"/>
     </defs>
     <use xlink:href="#DejaVuSans-4e"/>
    </g>
   </g>
   <g id="text_32">
    <!-- $ N_{xz} $ -->
    <g transform="translate(331.692524 231.10291)scale(0.16 -0.16)">
     <defs>
      <path d="M 1081 4666 
L 1931 4666 
L 3219 666 
L 4000 4666 
L 4616 4666 
L 3706 0 
L 2853 0 
L 1569 4025 
L 788 0 
L 172 0 
L 1081 4666 
z
" id="DejaVuSans-Oblique-4e" transform="scale(0.015625)"/>
      <path d="M 3841 3500 
L 2234 1784 
L 3219 0 
L 2559 0 
L 1819 1388 
L 531 0 
L -166 0 
L 1556 1844 
L 641 3500 
L 1300 3500 
L 1972 2234 
L 3144 3500 
L 3841 3500 
z
" id="DejaVuSans-Oblique-78" transform="scale(0.015625)"/>
      <path d="M 744 3500 
L 3475 3500 
L 3372 2975 
L 738 459 
L 2913 459 
L 2822 0 
L -19 0 
L 84 525 
L 2719 3041 
L 653 3041 
L 744 3500 
z
" id="DejaVuSans-Oblique-7a" transform="scale(0.015625)"/>
     </defs>
     <use transform="translate(0 0.09375)" xlink:href="#DejaVuSans-Oblique-4e"/>
     <use transform="translate(74.804688 -16.3125)scale(0.7)" xlink:href="#DejaVuSans-Oblique-78"/>
     <use transform="translate(116.230469 -16.3125)scale(0.7)" xlink:href="#DejaVuSans-Oblique-7a"/>
    </g>
   </g>
   <g id="text_33">
    <!-- $ N_y $ -->
    <g transform="translate(396.400553 391.711886)scale(0.16 -0.16)">
     <defs>
      <path d="M 1588 -325 
Q 1188 -997 936 -1164 
Q 684 -1331 294 -1331 
L -159 -1331 
L -63 -850 
L 269 -850 
Q 509 -850 678 -719 
Q 847 -588 1056 -206 
L 1234 128 
L 459 3500 
L 1069 3500 
L 1650 819 
L 3256 3500 
L 3859 3500 
L 1588 -325 
z
" id="DejaVuSans-Oblique-79" transform="scale(0.015625)"/>
     </defs>
     <use transform="translate(0 0.09375)" xlink:href="#DejaVuSans-Oblique-4e"/>
     <use transform="translate(74.804688 -16.3125)scale(0.7)" xlink:href="#DejaVuSans-Oblique-79"/>
    </g>
   </g>
   <g id="text_34">
    <!-- $ T $ -->
    <g style="fill:#874e3a;" transform="translate(420.805196 493.376268)scale(0.16 -0.16)">
     <defs>
      <path d="M 378 4666 
L 4325 4666 
L 4225 4134 
L 2559 4134 
L 1759 0 
L 1125 0 
L 1925 4134 
L 275 4134 
L 378 4666 
z
" id="DejaVuSans-Oblique-54" transform="scale(0.015625)"/>
     </defs>
     <use transform="translate(0 0.09375)" xlink:href="#DejaVuSans-Oblique-54"/>
    </g>
   </g>
   <g id="text_35">
    <!-- $ B $ -->
    <g style="fill:#85cb99;" transform="translate(612.829215 282.258824)scale(0.16 -0.16)">
     <defs>
      <path d="M 1081 4666 
L 2694 4666 
Q 3350 4666 3675 4422 
Q 4000 4178 4000 3688 
Q 4000 3238 3720 2911 
Q 3441 2584 2988 2516 
Q 3375 2428 3569 2181 
Q 3763 1934 3763 1522 
Q 3763 819 3242 409 
Q 2722 0 1819 0 
L 172 0 
L 1081 4666 
z
M 1234 2228 
L 903 519 
L 1919 519 
Q 2491 519 2800 781 
Q 3109 1044 3109 1522 
Q 3109 1891 2904 2059 
Q 2700 2228 2247 2228 
L 1234 2228 
z
M 1606 4147 
L 1331 2741 
L 2272 2741 
Q 2775 2741 3058 2959 
Q 3341 3178 3341 3566 
Q 3341 3869 3150 4008 
Q 2959 4147 2541 4147 
L 1606 4147 
z
" id="DejaVuSans-Oblique-42" transform="scale(0.015625)"/>
     </defs>
     <use transform="translate(0 0.09375)" xlink:href="#DejaVuSans-Oblique-42"/>
    </g>
   </g>
   <g id="Line3DCollection_5">
    <path clip-path="url(#p1303ed3e5b)" d="M 331.692524 231.10291 
L 441.992432 359.727568 
" style="fill:none;stroke:#000000;stroke-width:1.5;"/>
    <path clip-path="url(#p1303ed3e5b)" d="M 331.692524 231.10291 
L 338.615847 245.275777 
" style="fill:none;stroke:#000000;stroke-width:1.5;"/>
    <path clip-path="url(#p1303ed3e5b)" d="M 331.692524 231.10291 
L 346.036812 241.723905 
" style="fill:none;stroke:#000000;stroke-width:1.5;"/>
   </g>
   <g id="Line3DCollection_6">
    <path clip-path="url(#p1303ed3e5b)" d="M 441.992432 194.693171 
L 441.992432 359.727568 
" style="fill:none;stroke:#0000ff;stroke-width:3;"/>
    <path clip-path="url(#p1303ed3e5b)" d="M 441.992432 194.693171 
L 447.467282 211.494171 
" style="fill:none;stroke:#0000ff;stroke-width:3;"/>
    <path clip-path="url(#p1303ed3e5b)" d="M 441.992432 194.693171 
L 436.523883 210.162921 
" style="fill:none;stroke:#0000ff;stroke-width:3;"/>
   </g>
   <g id="Line3DCollection_7">
    <path clip-path="url(#p1303ed3e5b)" d="M 283.512905 259.865766 
L 441.992432 359.727568 
" style="fill:none;stroke:#1f77b4;stroke-width:2;"/>
    <path clip-path="url(#p1303ed3e5b)" d="M 283.512905 259.865766 
L 295.120373 273.18698 
" style="fill:none;stroke:#1f77b4;stroke-width:2;"/>
    <path clip-path="url(#p1303ed3e5b)" d="M 283.512905 259.865766 
L 303.12957 266.220422 
" style="fill:none;stroke:#1f77b4;stroke-width:2;"/>
   </g>
   <g id="Line3DCollection_8">
    <path clip-path="url(#p1303ed3e5b)" d="M 283.512905 259.865766 
L 441.992432 359.727568 
" style="fill:none;stroke:#4c17b3;stroke-width:2;"/>
    <path clip-path="url(#p1303ed3e5b)" d="M 283.512905 259.865766 
L 295.120373 273.18698 
" style="fill:none;stroke:#4c17b3;stroke-width:2;"/>
    <path clip-path="url(#p1303ed3e5b)" d="M 283.512905 259.865766 
L 303.12957 266.220422 
" style="fill:none;stroke:#4c17b3;stroke-width:2;"/>
   </g>
   <g id="Line3DCollection_9">
    <path clip-path="url(#p1303ed3e5b)" d="M 396.400553 391.711886 
L 441.992432 359.727568 
" style="fill:none;stroke:#000000;stroke-width:1.5;"/>
    <path clip-path="url(#p1303ed3e5b)" d="M 396.400553 391.711886 
L 400.908629 390.623414 
" style="fill:none;stroke:#000000;stroke-width:1.5;"/>
    <path clip-path="url(#p1303ed3e5b)" d="M 396.400553 391.711886 
L 400.894703 386.484274 
" style="fill:none;stroke:#000000;stroke-width:1.5;"/>
   </g>
   <g id="Line3DCollection_10">
    <path clip-path="url(#p1303ed3e5b)" d="M 612.829215 282.258824 
L 441.992432 359.727568 
" style="fill:none;stroke:#85cb99;stroke-width:1.5;"/>
    <path clip-path="url(#p1303ed3e5b)" d="M 612.829215 282.258824 
L 599.29102 293.811246 
" style="fill:none;stroke:#85cb99;stroke-width:1.5;"/>
    <path clip-path="url(#p1303ed3e5b)" d="M 612.829215 282.258824 
L 592.584963 286.026375 
" style="fill:none;stroke:#85cb99;stroke-width:1.5;"/>
   </g>
   <g id="Line3DCollection_11">
    <path clip-path="url(#p1303ed3e5b)" d="M 420.805196 493.376268 
L 441.992432 359.727568 
" style="fill:none;stroke:#874e3a;stroke-width:1.5;"/>
    <path clip-path="url(#p1303ed3e5b)" d="M 420.805196 493.376268 
L 423.181759 483.137497 
" style="fill:none;stroke:#874e3a;stroke-width:1.5;"/>
    <path clip-path="url(#p1303ed3e5b)" d="M 420.805196 493.376268 
L 422.693996 476.700727 
" style="fill:none;stroke:#874e3a;stroke-width:1.5;"/>
   </g>
   <g id="Line3DCollection_12">
    <path clip-path="url(#p1303ed3e5b)" d="M 344.753544 427.944092 
L 441.992432 359.727568 
" style="fill:none;stroke:#008000;stroke-width:3;"/>
    <path clip-path="url(#p1303ed3e5b)" d="M 344.753544 427.944092 
L 354.618917 425.43421 
" style="fill:none;stroke:#008000;stroke-width:3;"/>
    <path clip-path="url(#p1303ed3e5b)" d="M 344.753544 427.944092 
L 354.555906 416.653181 
" style="fill:none;stroke:#008000;stroke-width:3;"/>
   </g>
  </g>
 </g>
 <defs>
  <clipPath id="p1303ed3e5b">
   <rect height="739.44" width="739.44" x="62.28" y="0"/>
  </clipPath>
 </defs>
</svg>
